<svg width="68" height="35" viewBox="0 0 68 35" fill="none" xmlns="http://www.w3.org/2000/svg">
<path d="M3.33545 3.54883H8.21809V5.57288H5.53855V13.8494H7.14627V15.8741H5.53855V26.1746H3.33545V3.54883Z" fill="white"/>
<path d="M9.40869 3.54883H11.6118V24.1499H14.2913V26.1746H9.40869V3.54883Z" fill="white"/>
<path d="M15.4816 24.5675V5.15655L17.0893 3.54883H19.5898L21.1675 5.15655V24.5675L19.5597 26.1752H17.0887L15.481 24.5675H15.4816ZM17.6847 5.57413V24.1506H18.965V5.5735H17.6847V5.57413Z" fill="white"/>
<path d="M22.6559 24.5675V5.15655L24.2636 3.54883H26.7641L28.3418 5.15655V24.5675L26.734 26.1752H24.263L22.6553 24.5675H22.6559ZM24.859 5.57413V24.1506H26.1393V5.5735H24.859V5.57413Z" fill="white"/>
<path d="M33.314 15.8734H32.0337V26.174H29.8306V3.54883H33.9093L35.5171 5.15655V13.8193L34.4753 14.8317L35.5171 15.8734V26.174H33.314V15.8734ZM32.0337 5.57288V13.8494H33.314V5.57288H32.0337Z" fill="white"/>
<path d="M38.4642 5.57288H36.7075V3.54883H42.4234V5.57288H40.6673V26.174H38.4642V5.57288Z" fill="white"/>
<path d="M46.5843 21.8874H45.0066L44.6792 26.1746H42.4761L44.5302 3.54883H47.0607L49.1148 26.1746H46.9117L46.5843 21.8874ZM45.7804 11.6162L45.155 19.8627H46.4353L45.8098 11.6162H45.7804Z" fill="white"/>
<path d="M50.2158 24.5675V20.3103H52.4189V24.1506H53.6992V15.8741H51.8235L50.2158 14.2964V5.15655L51.8235 3.54883H54.2946L55.9023 5.15655V9.41375H53.6992V5.5735H52.4189V13.85H54.2946L55.9023 15.3983V24.5675L54.2946 26.1752H51.8235L50.2158 24.5675Z" fill="white"/>
<path d="M59.2663 17.7497L56.9736 3.54883H59.1173L60.3381 11.7652H60.3976L61.6184 3.54883H63.762L61.4694 17.7497V26.1746H59.2663V17.7497Z" fill="white"/>
<path d="M67.0973 0.0839844H0V29.6384H8.15505V34.2737H10.0332V29.6384H57.0641V34.2737H58.9422V29.6384H67.0973V0.0839844ZM65.2191 27.7602H1.87818V1.96216H65.2191V27.7602Z" fill="white"/>
</svg>
